<svg xmlns="http://www.w3.org/2000/svg" xmlns:xlink="http://www.w3.org/1999/xlink" version="1.1" x="0px" y="0px" viewBox="0 0 454.9 35.4" enable-background="new 0 0 454.9 35.4" xml:space="preserve"><g><g><path fill="#FFFFFF" d="M6.1 2.6H0V0.7h14.2v1.8H8.1v15h-2V2.6z"/><path fill="#FFFFFF" d="M26.4 0.7h2v7.3h8.7V0.7h2v16.8h-2V9.9h-8.7v7.7h-2V0.7z"/></g><g><path fill="#FFFFFF" d="M53 0.7h11.5v1.8H55v5.6h8.5v1.7H55v5.9h9.6v1.8H53V0.7z"/></g><g><path fill="#FFFFFF" d="M87.3 0.6h24.5V7H94.7v8h14.8v6.1H94.7v13.7h-7.4V0.6z"/></g><g><path fill="#FFFFFF" d="M131.8 0.6h8.4l12.4 34.2h-7.9l-2.1-6.4h-13l-2.1 6.4h-8L131.8 0.6z M131.4 22.7h9.2L136 8.8h-0.1 L131.4 22.7z"/></g><g><path fill="#FFFFFF" d="M164 0.6h15c9.8 0 13.1 5.4 13.1 10.8c0 4-2 7.6-6.3 9.4l6.5 13.9h-8L179.3 22h-7.8v12.8H164V0.6z M179 16.6c3.9 0 5.8-2.2 5.8-5.1c0-3-2-5-5.8-5h-7.6v10.1H179z"/></g><g><path fill="#FFFFFF" d="M205.8 0.6h7.4l10.3 14.6l10.4-14.6h7.3v34.2h-7V11.1l-10.7 14.8l-10.7-14.8v23.6h-7V0.6z"/></g><g><path fill="#FFFFFF" d="M257.7 0.6h7.4v13.7h13.3V0.6h7.4v34.2h-7.4V20.6h-13.3v14.2h-7.4V0.6z"/></g><g><path fill="#FFFFFF" d="M316.6 0c10.4 0 17.7 7.3 17.7 17.6c0 10.4-7.3 17.8-17.7 17.8c-10.4 0-17.7-7.4-17.7-17.8 C298.9 7.3 306.3 0 316.6 0z M316.6 29.1c6 0 10.3-4.5 10.3-11.5c0-6.8-4.2-11.4-10.3-11.4c-6 0-10.2 4.5-10.2 11.4 C306.4 24.6 310.7 29.1 316.6 29.1z"/></g><g><path fill="#FFFFFF" d="M347.1 0.6h7.5v21.2c0 4.6 2.8 7.3 7 7.3c4.1 0 7-2.6 7-7.3V0.6h7.4v21.2c0 9.1-6 13.6-14.4 13.6 s-14.5-4.4-14.5-13.6V0.6z"/></g><g><path fill="#FFFFFF" d="M391.7 25.8c3 1.8 6.6 3.1 10.1 3.1c3.7 0 5.6-1.5 5.6-3.7c0-6.4-18.5-2.1-18.5-15 c0-5.6 4.6-10.2 12.6-10.2c4.5 0 8.5 1.1 12.3 2.9L411 8.7c-3-1.5-6.2-2.2-9.2-2.2c-3.3 0-5.2 1.6-5.2 3.6c0 6.3 18.5 1.9 18.5 15 c0 5.8-4.4 10.3-13.2 10.3c-5.1 0-10.4-1.7-13.6-3.8L391.7 25.8z"/></g><g><path fill="#FFFFFF" d="M429.8 0.6h24.9V7h-17.5v7.5h15.6v5.7h-15.6v8.1h17.7v6.4h-25.1V0.6z"/></g></g></svg>