<?xml version="1.0" encoding="utf-8"?>
<!-- Generator: Adobe Illustrator 17.1.0, SVG Export Plug-In . SVG Version: 6.00 Build 0)  -->
<!DOCTYPE svg PUBLIC "-//W3C//DTD SVG 1.1//EN" "http://www.w3.org/Graphics/SVG/1.1/DTD/svg11.dtd">
<svg version="1.1" id="Layer_1" xmlns="http://www.w3.org/2000/svg" xmlns:xlink="http://www.w3.org/1999/xlink" x="0px" y="0px"
	 viewBox="0 0 173.7 277.2" enable-background="new 0 0 173.7 277.2" xml:space="preserve">
<g>
	<path fill="#FFFFFF" d="M167.7,135c-8.8-31.1-18.5-63.4-30.7-88.6c-7-14.4-14-25.1-21.5-32.7C106.5,4.6,96.9,0,86.8,0
		C76.8,0,67.2,4.6,58.2,13.7c-7.5,7.7-14.5,18.4-21.5,32.7C24.6,71.6,14.8,103.9,6,135c-6.1,21.7-7.6,42.3-4.4,61.2
		c1.5,8.6,3.9,16.9,7.3,24.7c3.2,7.3,7.2,14.2,11.9,20.4c8.4,11.1,19.2,20.4,31.3,26.7c11.4,6,23.4,9.2,34.8,9.2
		c11.3,0,23.3-3.2,34.8-9.2c12-6.3,22.8-15.5,31.3-26.7c4.7-6.2,8.7-13.1,11.9-20.4c3.4-7.7,5.8-16,7.3-24.7
		C175.2,177.4,173.8,156.7,167.7,135 M140.3,236.7c-14.2,17.3-34.7,28-53.4,28V215c0.1,0,0.2,0,0.3,0c9.4,0,18.3-3.1,24.9-9.1H89.2
		h-2.3v-7h2.3H116h2c1.8-2.8,3.3-6,4.3-9.5h-13H86.8v-7h22.4h14.5c0.3-2.4,0.5-4.8,0.5-7.4c0-0.6,0-1.1,0-1.7h-15H86.8v-7h22.4h14.3
		c-0.5-3.1-1.3-6.3-2.2-9.5h-18.8H86.8v-7h15.7H119c-1.1-3.1-2.4-6.1-3.8-9.1h-12.6H86.8v-7h15.7h9.1c-1.9-3.4-3.8-6.6-5.8-9.5h-10
		h-9v-7h9h4.7c-4.8-5.6-9.6-9.1-13.4-9.1c-0.1,0-0.2,0-0.3,0V12.5c33,0,56.9,84.9,68.4,125.8C166.1,176.9,160.8,211.9,140.3,236.7"
		/>
</g>
</svg>
